<mxfile host="Electron" modified="2024-02-17T03:52:57.677Z" agent="Mozilla/5.0 (Windows NT 10.0; Win64; x64) AppleWebKit/537.36 (KHTML, like Gecko) draw.io/22.1.15 Chrome/120.0.6099.109 Electron/28.1.0 Safari/537.36" etag="vJXBasr6FWt1-X36P9QH" version="22.1.15" type="device">
  <diagram name="페이지-1" id="6PIL1jt468iQGm4EiIzT">
    <mxGraphModel dx="1943" dy="789" grid="1" gridSize="10" guides="1" tooltips="1" connect="1" arrows="1" fold="1" page="1" pageScale="1" pageWidth="827" pageHeight="1169" math="0" shadow="0">
      <root>
        <mxCell id="0" />
        <mxCell id="1" parent="0" />
        <mxCell id="lVTk7udYLQ_x_3t9jnzb-85" value="" style="whiteSpace=wrap;html=1;" parent="1" vertex="1">
          <mxGeometry x="440" y="1400" width="480" height="210" as="geometry" />
        </mxCell>
        <mxCell id="lVTk7udYLQ_x_3t9jnzb-1" value="container" style="whiteSpace=wrap;html=1;" parent="1" vertex="1">
          <mxGeometry x="280" y="280" width="120" height="60" as="geometry" />
        </mxCell>
        <mxCell id="lVTk7udYLQ_x_3t9jnzb-2" value="header" style="whiteSpace=wrap;html=1;" parent="1" vertex="1">
          <mxGeometry x="280" y="60" width="120" height="60" as="geometry" />
        </mxCell>
        <mxCell id="lVTk7udYLQ_x_3t9jnzb-3" value="section1" style="whiteSpace=wrap;html=1;" parent="1" vertex="1">
          <mxGeometry x="500" y="200" width="120" height="60" as="geometry" />
        </mxCell>
        <mxCell id="lVTk7udYLQ_x_3t9jnzb-6" value="footer" style="whiteSpace=wrap;html=1;" parent="1" vertex="1">
          <mxGeometry x="280" y="1460" width="120" height="60" as="geometry" />
        </mxCell>
        <mxCell id="lVTk7udYLQ_x_3t9jnzb-7" value="nav" style="whiteSpace=wrap;html=1;" parent="1" vertex="1">
          <mxGeometry x="120" y="280" width="120" height="60" as="geometry" />
        </mxCell>
        <mxCell id="lVTk7udYLQ_x_3t9jnzb-8" value="header text" style="whiteSpace=wrap;html=1;" parent="1" vertex="1">
          <mxGeometry x="440" y="270" width="120" height="80" as="geometry" />
        </mxCell>
        <mxCell id="lVTk7udYLQ_x_3t9jnzb-9" value="video" style="whiteSpace=wrap;html=1;" parent="1" vertex="1">
          <mxGeometry x="560" y="270" width="120" height="160" as="geometry" />
        </mxCell>
        <mxCell id="lVTk7udYLQ_x_3t9jnzb-10" value="text" style="whiteSpace=wrap;html=1;" parent="1" vertex="1">
          <mxGeometry x="470" y="350" width="90" height="80" as="geometry" />
        </mxCell>
        <mxCell id="lVTk7udYLQ_x_3t9jnzb-11" value="img" style="whiteSpace=wrap;html=1;" parent="1" vertex="1">
          <mxGeometry x="440" y="350" width="30" height="80" as="geometry" />
        </mxCell>
        <mxCell id="lVTk7udYLQ_x_3t9jnzb-12" value="section2" style="whiteSpace=wrap;html=1;" parent="1" vertex="1">
          <mxGeometry x="800" y="200" width="120" height="60" as="geometry" />
        </mxCell>
        <mxCell id="lVTk7udYLQ_x_3t9jnzb-13" value="image" style="whiteSpace=wrap;html=1;" parent="1" vertex="1">
          <mxGeometry x="740" y="270" width="120" height="160" as="geometry" />
        </mxCell>
        <mxCell id="lVTk7udYLQ_x_3t9jnzb-14" value="header text" style="whiteSpace=wrap;html=1;" parent="1" vertex="1">
          <mxGeometry x="860" y="270" width="120" height="70" as="geometry" />
        </mxCell>
        <mxCell id="lVTk7udYLQ_x_3t9jnzb-17" value="text" style="whiteSpace=wrap;html=1;" parent="1" vertex="1">
          <mxGeometry x="860" y="340" width="120" height="60" as="geometry" />
        </mxCell>
        <mxCell id="lVTk7udYLQ_x_3t9jnzb-18" value="link" style="whiteSpace=wrap;html=1;" parent="1" vertex="1">
          <mxGeometry x="860" y="400" width="120" height="30" as="geometry" />
        </mxCell>
        <mxCell id="lVTk7udYLQ_x_3t9jnzb-19" value="section3" style="whiteSpace=wrap;html=1;" parent="1" vertex="1">
          <mxGeometry x="500" y="480" width="120" height="60" as="geometry" />
        </mxCell>
        <mxCell id="lVTk7udYLQ_x_3t9jnzb-20" value="header text" style="whiteSpace=wrap;html=1;" parent="1" vertex="1">
          <mxGeometry x="440" y="550" width="120" height="70" as="geometry" />
        </mxCell>
        <mxCell id="lVTk7udYLQ_x_3t9jnzb-21" value="image" style="whiteSpace=wrap;html=1;" parent="1" vertex="1">
          <mxGeometry x="560" y="550" width="120" height="160" as="geometry" />
        </mxCell>
        <mxCell id="lVTk7udYLQ_x_3t9jnzb-25" value="text" style="whiteSpace=wrap;html=1;" parent="1" vertex="1">
          <mxGeometry x="440" y="620" width="120" height="60" as="geometry" />
        </mxCell>
        <mxCell id="lVTk7udYLQ_x_3t9jnzb-26" value="link" style="whiteSpace=wrap;html=1;" parent="1" vertex="1">
          <mxGeometry x="440" y="680" width="120" height="30" as="geometry" />
        </mxCell>
        <mxCell id="lVTk7udYLQ_x_3t9jnzb-27" value="video" style="whiteSpace=wrap;html=1;" parent="1" vertex="1">
          <mxGeometry x="510" y="700" width="100" height="60" as="geometry" />
        </mxCell>
        <mxCell id="lVTk7udYLQ_x_3t9jnzb-28" value="section4" style="whiteSpace=wrap;html=1;" parent="1" vertex="1">
          <mxGeometry x="800" y="470" width="120" height="60" as="geometry" />
        </mxCell>
        <mxCell id="lVTk7udYLQ_x_3t9jnzb-29" value="header text" style="whiteSpace=wrap;html=1;" parent="1" vertex="1">
          <mxGeometry x="740" y="540" width="240" height="70" as="geometry" />
        </mxCell>
        <mxCell id="lVTk7udYLQ_x_3t9jnzb-30" value="image" style="whiteSpace=wrap;html=1;" parent="1" vertex="1">
          <mxGeometry x="740" y="610" width="240" height="190" as="geometry" />
        </mxCell>
        <mxCell id="lVTk7udYLQ_x_3t9jnzb-34" value="text" style="whiteSpace=wrap;html=1;" parent="1" vertex="1">
          <mxGeometry x="740" y="800" width="240" height="50" as="geometry" />
        </mxCell>
        <mxCell id="lVTk7udYLQ_x_3t9jnzb-35" value="link" style="whiteSpace=wrap;html=1;" parent="1" vertex="1">
          <mxGeometry x="740" y="850" width="240" height="30" as="geometry" />
        </mxCell>
        <mxCell id="lVTk7udYLQ_x_3t9jnzb-36" value="section5" style="whiteSpace=wrap;html=1;" parent="1" vertex="1">
          <mxGeometry x="500" y="920" width="120" height="60" as="geometry" />
        </mxCell>
        <mxCell id="lVTk7udYLQ_x_3t9jnzb-37" value="header text" style="whiteSpace=wrap;html=1;" parent="1" vertex="1">
          <mxGeometry x="440" y="990" width="240" height="30" as="geometry" />
        </mxCell>
        <mxCell id="lVTk7udYLQ_x_3t9jnzb-38" value="text" style="whiteSpace=wrap;html=1;" parent="1" vertex="1">
          <mxGeometry x="440" y="1020" width="240" height="40" as="geometry" />
        </mxCell>
        <mxCell id="lVTk7udYLQ_x_3t9jnzb-39" value="image" style="whiteSpace=wrap;html=1;" parent="1" vertex="1">
          <mxGeometry x="440" y="1060" width="80" height="50" as="geometry" />
        </mxCell>
        <mxCell id="lVTk7udYLQ_x_3t9jnzb-41" value="image" style="whiteSpace=wrap;html=1;" parent="1" vertex="1">
          <mxGeometry x="520" y="1060" width="80" height="70" as="geometry" />
        </mxCell>
        <mxCell id="lVTk7udYLQ_x_3t9jnzb-42" value="image" style="whiteSpace=wrap;html=1;" parent="1" vertex="1">
          <mxGeometry x="600" y="1060" width="80" height="50" as="geometry" />
        </mxCell>
        <mxCell id="lVTk7udYLQ_x_3t9jnzb-43" value="link" style="whiteSpace=wrap;html=1;" parent="1" vertex="1">
          <mxGeometry x="440" y="1130" width="240" height="30" as="geometry" />
        </mxCell>
        <mxCell id="lVTk7udYLQ_x_3t9jnzb-44" value="section6" style="whiteSpace=wrap;html=1;" parent="1" vertex="1">
          <mxGeometry x="800" y="920" width="120" height="60" as="geometry" />
        </mxCell>
        <mxCell id="lVTk7udYLQ_x_3t9jnzb-45" value="header text" style="whiteSpace=wrap;html=1;" parent="1" vertex="1">
          <mxGeometry x="740" y="990" width="240" height="30" as="geometry" />
        </mxCell>
        <mxCell id="lVTk7udYLQ_x_3t9jnzb-46" value="text" style="whiteSpace=wrap;html=1;" parent="1" vertex="1">
          <mxGeometry x="740" y="1020" width="240" height="40" as="geometry" />
        </mxCell>
        <mxCell id="lVTk7udYLQ_x_3t9jnzb-47" value="image" style="whiteSpace=wrap;html=1;" parent="1" vertex="1">
          <mxGeometry x="740" y="1060" width="60" height="40" as="geometry" />
        </mxCell>
        <mxCell id="lVTk7udYLQ_x_3t9jnzb-51" value="text" style="whiteSpace=wrap;html=1;" parent="1" vertex="1">
          <mxGeometry x="740" y="1100" width="60" height="40" as="geometry" />
        </mxCell>
        <mxCell id="lVTk7udYLQ_x_3t9jnzb-52" value="image" style="whiteSpace=wrap;html=1;" parent="1" vertex="1">
          <mxGeometry x="800" y="1060" width="60" height="40" as="geometry" />
        </mxCell>
        <mxCell id="lVTk7udYLQ_x_3t9jnzb-53" value="text" style="whiteSpace=wrap;html=1;" parent="1" vertex="1">
          <mxGeometry x="800" y="1100" width="60" height="40" as="geometry" />
        </mxCell>
        <mxCell id="lVTk7udYLQ_x_3t9jnzb-54" value="image" style="whiteSpace=wrap;html=1;" parent="1" vertex="1">
          <mxGeometry x="860" y="1060" width="60" height="40" as="geometry" />
        </mxCell>
        <mxCell id="lVTk7udYLQ_x_3t9jnzb-55" value="text" style="whiteSpace=wrap;html=1;" parent="1" vertex="1">
          <mxGeometry x="860" y="1100" width="60" height="40" as="geometry" />
        </mxCell>
        <mxCell id="lVTk7udYLQ_x_3t9jnzb-58" value="image" style="whiteSpace=wrap;html=1;" parent="1" vertex="1">
          <mxGeometry x="920" y="1060" width="60" height="40" as="geometry" />
        </mxCell>
        <mxCell id="lVTk7udYLQ_x_3t9jnzb-59" value="text" style="whiteSpace=wrap;html=1;" parent="1" vertex="1">
          <mxGeometry x="920" y="1100" width="60" height="40" as="geometry" />
        </mxCell>
        <mxCell id="lVTk7udYLQ_x_3t9jnzb-60" value="section7" style="whiteSpace=wrap;html=1;" parent="1" vertex="1">
          <mxGeometry x="500" y="1190" width="120" height="60" as="geometry" />
        </mxCell>
        <mxCell id="lVTk7udYLQ_x_3t9jnzb-61" value="header text" style="whiteSpace=wrap;html=1;" parent="1" vertex="1">
          <mxGeometry x="440" y="1260" width="240" height="30" as="geometry" />
        </mxCell>
        <mxCell id="lVTk7udYLQ_x_3t9jnzb-62" value="link" style="whiteSpace=wrap;html=1;" parent="1" vertex="1">
          <mxGeometry x="440" y="1290" width="240" height="40" as="geometry" />
        </mxCell>
        <mxCell id="lVTk7udYLQ_x_3t9jnzb-71" value="section8" style="whiteSpace=wrap;html=1;" parent="1" vertex="1">
          <mxGeometry x="800" y="1190" width="120" height="60" as="geometry" />
        </mxCell>
        <mxCell id="lVTk7udYLQ_x_3t9jnzb-72" value="To top of page (page up)" style="whiteSpace=wrap;html=1;" parent="1" vertex="1">
          <mxGeometry x="740" y="1260" width="240" height="30" as="geometry" />
        </mxCell>
        <mxCell id="lVTk7udYLQ_x_3t9jnzb-75" value="header text" style="whiteSpace=wrap;html=1;" parent="1" vertex="1">
          <mxGeometry x="440" y="1400" width="120" height="60" as="geometry" />
        </mxCell>
        <mxCell id="lVTk7udYLQ_x_3t9jnzb-76" value="text" style="whiteSpace=wrap;html=1;" parent="1" vertex="1">
          <mxGeometry x="440" y="1460" width="120" height="60" as="geometry" />
        </mxCell>
        <mxCell id="lVTk7udYLQ_x_3t9jnzb-77" value="text" style="whiteSpace=wrap;html=1;" parent="1" vertex="1">
          <mxGeometry x="560" y="1460" width="120" height="60" as="geometry" />
        </mxCell>
        <mxCell id="lVTk7udYLQ_x_3t9jnzb-78" value="links" style="whiteSpace=wrap;html=1;" parent="1" vertex="1">
          <mxGeometry x="440" y="1550" width="120" height="30" as="geometry" />
        </mxCell>
        <mxCell id="lVTk7udYLQ_x_3t9jnzb-79" value="@copyright" style="whiteSpace=wrap;html=1;" parent="1" vertex="1">
          <mxGeometry x="440" y="1580" width="120" height="30" as="geometry" />
        </mxCell>
        <mxCell id="lVTk7udYLQ_x_3t9jnzb-80" value="link" style="whiteSpace=wrap;html=1;" parent="1" vertex="1">
          <mxGeometry x="680" y="1530" width="120" height="50" as="geometry" />
        </mxCell>
        <mxCell id="lVTk7udYLQ_x_3t9jnzb-82" value="image" style="whiteSpace=wrap;html=1;" parent="1" vertex="1">
          <mxGeometry x="680" y="1400" width="240" height="130" as="geometry" />
        </mxCell>
        <mxCell id="lVTk7udYLQ_x_3t9jnzb-83" value="link" style="whiteSpace=wrap;html=1;" parent="1" vertex="1">
          <mxGeometry x="800" y="1530" width="120" height="50" as="geometry" />
        </mxCell>
        <mxCell id="lVTk7udYLQ_x_3t9jnzb-84" value="author" style="whiteSpace=wrap;html=1;" parent="1" vertex="1">
          <mxGeometry x="860" y="1580" width="60" height="30" as="geometry" />
        </mxCell>
        <mxCell id="lVTk7udYLQ_x_3t9jnzb-86" value="=" style="whiteSpace=wrap;html=1;" parent="1" vertex="1">
          <mxGeometry x="60" y="197.5" width="20" height="225" as="geometry" />
        </mxCell>
        <mxCell id="lVTk7udYLQ_x_3t9jnzb-88" value="menus" style="whiteSpace=wrap;html=1;" parent="1" vertex="1">
          <mxGeometry x="-90" y="197.5" width="150" height="165" as="geometry" />
        </mxCell>
        <mxCell id="lVTk7udYLQ_x_3t9jnzb-89" value="links" style="whiteSpace=wrap;html=1;" parent="1" vertex="1">
          <mxGeometry x="-90" y="362.5" width="150" height="30" as="geometry" />
        </mxCell>
        <mxCell id="lVTk7udYLQ_x_3t9jnzb-90" value="copyright" style="whiteSpace=wrap;html=1;" parent="1" vertex="1">
          <mxGeometry x="-90" y="392.5" width="150" height="30" as="geometry" />
        </mxCell>
        <mxCell id="lVTk7udYLQ_x_3t9jnzb-91" value="image" style="whiteSpace=wrap;html=1;" parent="1" vertex="1">
          <mxGeometry x="440" y="60" width="240" height="30" as="geometry" />
        </mxCell>
        <mxCell id="lVTk7udYLQ_x_3t9jnzb-92" value="image" style="whiteSpace=wrap;html=1;" parent="1" vertex="1">
          <mxGeometry x="440" y="90" width="240" height="30" as="geometry" />
        </mxCell>
      </root>
    </mxGraphModel>
  </diagram>
</mxfile>
